<?xml version="1.0" standalone="no"?><!DOCTYPE svg PUBLIC "-//W3C//DTD SVG 1.1//EN" "http://www.w3.org/Graphics/SVG/1.1/DTD/svg11.dtd"><svg class="icon" width="200px" height="200.00px" viewBox="0 0 1024 1024" version="1.1" xmlns="http://www.w3.org/2000/svg"><path fill="#333333" d="M644.832819 655.423527c-4.818749 0-9.549493-0.633427-14.104229-1.828648l0 182.630481c3.206018 1.121544 6.421246 2.286066 9.953699 2.286066 19.092847 0 34.5724-17.683754 34.5724-39.517015L675.254689 645.574205c-3.583618 2.316765-7.064906 4.804423-11.076266 6.299473C657.918859 654.228305 651.404492 655.423527 644.832819 655.423527L644.832819 655.423527zM831.971987 303.911708c-8.549723-26.440186-32.853245-44.215014-60.505026-44.215014l-98.881055 0c-18.021445 0-34.108842 8.083096-45.856397 20.666692-2.200108 2.986007-4.575202 5.830799-7.05365 8.592702-1.497097 2.317789-2.576685 4.928243-3.789303 7.459902 27.411303 9.597589 49.554626 31.474852 58.926064 60.473303l64.030315 198.101847c2.90005 8.951883 3.944845 18.209734 3.139503 27.341718-0.601704 7.097652-2.310625 13.878079-4.881171 20.24816l0 182.678576c0 21.215184 17.080004 38.411845 38.170345 38.411845 21.069875 0 38.160111-17.196661 38.160111-38.411845L813.431725 491.948315l10.851139 33.5757c5.184069 16.035208 19.968797 26.238594 35.855626 26.238594 3.855818 0 7.792477-0.61603 11.675924-1.886977 14.858406-4.866844 24.665773-18.127869 25.914206-32.853245 0.440022-4.926196-0.102331-10.006911-1.723248-14.973016L831.971987 303.911708 831.971987 303.911708zM686.085362 225.309512c8.293897 2.832512 17.022699 4.705162 26.266224 4.705162 9.245572 0 17.98563-1.87265 26.276457-4.705162 32.112372-10.973936 55.356772-41.075511 55.356772-76.917834 0-45.082778-36.547381-81.634252-81.632205-81.634252-45.075615 0-81.622996 36.552497-81.622996 81.634252C630.72859 184.235025 653.97913 214.3366 686.085362 225.309512L686.085362 225.309512zM624.198873 363.290073c-8.55791-26.454512-32.865525-44.227294-60.509119-44.227294L464.809723 319.062779c-18.023492 0-34.112935 8.082072-45.859467 20.666692-2.207271 2.984984-4.574179 5.830799-7.05058 8.594749-1.508353 2.314719-2.589988 4.920056-3.791349 7.457856 27.41335 9.590426 49.548486 31.474852 58.930157 60.47535l64.019059 198.09366c2.902096 8.964162 3.957125 18.219967 3.151783 27.341718-0.601704 7.099698-2.308579 13.890358-4.888334 20.24816l0 182.691879c0 21.215184 17.086144 38.403658 38.172391 38.403658 21.080108 0 38.166251-17.188474 38.166251-38.403658L605.659635 551.316447l10.851139 33.57877c5.176906 16.033162 19.974937 26.228361 35.851533 26.228361 3.862981 0 7.80271-0.605797 11.67183-1.87879 14.869662-4.864798 24.668843-18.129916 25.914206-32.852222 0.444115-4.930289-0.102331-10.006911-1.717108-14.97404L624.198873 363.290073 624.198873 363.290073zM466.745818 714.77938c-4.831029 0-9.549493-0.633427-14.112416-1.830695l0 182.63969c3.214205 1.121544 6.4192 2.288113 9.953699 2.288113 19.092847 0 34.56933-17.685801 34.56933-39.519062L497.156432 704.938244c-3.572362 2.306532-7.05672 4.806469-11.06501 6.28924C479.821625 713.582111 473.318514 714.77938 466.745818 714.77938L466.745818 714.77938zM478.308155 284.672528c8.28264 2.835581 17.018605 4.707209 26.266224 4.707209 9.245572 0 17.981537-1.871627 26.266224-4.707209 32.114418-10.973936 55.365982-41.075511 55.365982-76.917834 0-45.081755-36.549427-81.631182-81.632205-81.631182-45.077661 0-81.625042 36.550451-81.625042 81.631182C422.949336 243.598041 446.19169 273.699616 478.308155 284.672528L478.308155 284.672528zM415.580508 437.494099c-8.668427-26.441209-33.287127-44.225247-61.281715-44.225247l-100.155071 0c-27.997658 0-52.614311 17.784038-61.280692 44.225247l-64.849984 198.12743c-1.639337 4.967128-2.189875 10.044774-1.741667 14.97404 1.264806 14.735609 11.18576 27.987425 26.248827 32.852222 3.919263 1.272993 7.907087 1.889023 11.82021 1.889023 16.081257 0 31.058366-10.203386 36.309974-26.238594l10.989285-33.576723 0 293.311279c0 21.217231 17.306154 38.411845 38.656415 38.411845s38.649252-17.194614 38.649252-38.411845L288.945343 689.324638l30.54262 0 0 229.516324c0 21.215184 17.308201 38.401612 38.658462 38.401612 21.351284 0 38.649252-17.186428 38.649252-38.401612L396.795677 625.520473l10.990309 33.576723c5.250584 16.035208 20.22667 26.238594 36.316114 26.238594 3.914146 0 7.891737-0.61603 11.82328-1.889023 15.051811-4.864798 24.984021-18.11559 26.245757-32.852222 0.442068-4.928243-0.11154-10.006911-1.740644-14.97404L415.580508 437.494099 415.580508 437.494099zM270.525831 358.882694c8.284687 2.833535 17.021675 4.705162 26.2652 4.705162 9.247618 0 17.984606-1.871627 26.267247-4.705162 32.115442-10.973936 55.367005-41.075511 55.367005-76.908624 0-45.089941-36.557614-81.642438-81.634252-81.642438-45.072545 0-81.621972 36.552497-81.621972 81.642438C215.170083 317.807183 238.41039 347.908758 270.525831 358.882694L270.525831 358.882694z" /></svg>